<?xml version="1.0" encoding="UTF-8"?>
<svg width="77px" height="49px" viewBox="0 0 77 49" version="1.1" xmlns="http://www.w3.org/2000/svg" xmlns:xlink="http://www.w3.org/1999/xlink">
    <!-- Generator: Sketch 55.1 (78136) - https://sketchapp.com -->
    <title>Logo</title>
    <desc>Created with Sketch.</desc>
    <defs>
        <linearGradient x1="50%" y1="0%" x2="83.3542201%" y2="11.6561161%" id="linearGradient-1">
            <stop stop-color="#F39927" offset="0%"></stop>
            <stop stop-color="#979797" offset="100%"></stop>
        </linearGradient>
        <path d="M42.3397714,27.7485286 C43.7496924,31.8432366 47.4284055,31.3590049 49.4705378,29.8733916 C51.7722705,28.1989239 52.719667,22.4709521 53.0042032,17.3114724 C53.501811,8.28837896 46.5199493,-2.17204162 41.041446,9.56121075 C45.0714318,4.61423049 47.5693831,5.57316861 49.0388907,7.71439039 C50.3178771,9.57800355 51.2302841,12.3930776 51.6667018,15.346108 C51.7456262,15.8801518 51.415724,16.4006916 51.4942688,16.9403862 C51.6347196,17.905447 51.1470248,19.149217 50.9938405,20.4291999 C50.2612975,26.5502106 46.8920037,34.4915796 42.3397714,27.7485286 Z" id="path-2"></path>
        <filter x="-62.7%" y="-18.8%" width="221.1%" height="154.6%" filterUnits="objectBoundingBox" id="filter-3">
            <feOffset dx="0" dy="2" in="SourceAlpha" result="shadowOffsetOuter1"></feOffset>
            <feMorphology radius="1" operator="erode" in="SourceAlpha" result="shadowInner"></feMorphology>
            <feOffset dx="0" dy="2" in="shadowInner" result="shadowInner"></feOffset>
            <feComposite in="shadowOffsetOuter1" in2="shadowInner" operator="out" result="shadowOffsetOuter1"></feComposite>
            <feGaussianBlur stdDeviation="2" in="shadowOffsetOuter1" result="shadowBlurOuter1"></feGaussianBlur>
            <feColorMatrix values="0 0 0 0 0.807843137   0 0 0 0 0.596078431   0 0 0 0 0.329411765  0 0 0 1 0" type="matrix" in="shadowBlurOuter1"></feColorMatrix>
        </filter>
        <path d="M46.5888869,40.5789529 C49.1763452,46.1186594 52.705995,47.9249188 56.4536745,45.9150413 C60.6777674,43.6496637 63.3814987,36.876962 63.9788911,23.4053496 C62.3594092,12.5610894 59.8905823,4.14749313 52.9545376,5.35126576 C50.1678799,5.83489908 49.1781524,8.04410214 46.2965296,12.5937613 C50.4683271,8.832074 50.7635881,6.37789894 55.05538,6.89858089 C56.0821193,7.02314532 57.9932964,10.6858139 59.0118993,13.8740839 C60.6968121,19.1479322 61.0526491,25.0227875 61.0356208,26.1738002 C60.9647706,30.9628638 60.3724315,39.3539796 56.6606313,42.6932983 C53.9644168,45.118946 50.1039565,44.4173614 46.5888869,40.5789529 Z" id="path-4"></path>
        <filter x="-39.6%" y="-12.1%" width="179.2%" height="133.8%" filterUnits="objectBoundingBox" id="filter-5">
            <feOffset dx="0" dy="2" in="SourceAlpha" result="shadowOffsetOuter1"></feOffset>
            <feGaussianBlur stdDeviation="2" in="shadowOffsetOuter1" result="shadowBlurOuter1"></feGaussianBlur>
            <feColorMatrix values="0 0 0 0 0.807843137   0 0 0 0 0.596078431   0 0 0 0 0.329411765  0 0 0 1 0" type="matrix" in="shadowBlurOuter1"></feColorMatrix>
        </filter>
    </defs>
    <g id="Welcome" stroke="none" stroke-width="1" fill="none" fill-rule="evenodd">
        <g id="Mobile-Portrait" transform="translate(-6.000000, -3.000000)">
            <g id="Logo">
                <text id="Santa-Barbara" font-family="Futura-Medium, Futura" font-size="7" font-weight="400" fill="#4A4A4A">
                    <tspan x="6.43359375" y="37">Santa Barbara </tspan>
                </text>
                <text id="Flyers" font-family="Futura-Medium, Futura" font-size="7" font-weight="400" fill="#4A4A4A">
                    <tspan x="63.6147461" y="37">Flyers</tspan>
                </text>
                <text id="dog-sports" font-family="Futura-Medium, Futura" font-size="5" font-weight="400" fill="#A32D38">
                    <tspan x="58.9814453" y="42">dog sports</tspan>
                </text>
                <path d="M26.279264,5 C30.9618971,6.31949087 34.226225,7.16662558 36.0722477,7.54140411 C39.6905463,8.27598917 42.5306159,8.26470282 44.279264,8.7112274 C50.6140165,10.3288328 53.9462439,12.1616175 56.6095195,12.5207304 C64.2684951,13.5534576 65.8864013,10.4564634 68.6411566,10.6675663 C71.9290277,10.9195229 63.3733043,7.99422237 65.8033937,8.16167681 C66.8823284,8.23602486 66.9353479,8.10679511 67.8044314,8.16167681 C71.6507769,8.40456945 73.1030804,8.40456945 72.1613419,8.16167681 C72.3290371,8.66464575 72.5350111,8.98896734 72.779264,9.13464158 C74.1413901,9.94702364 75.6588464,10.2768875 76.1885221,10.6675663 C77.0608905,11.3110086 77.207982,12.2700922 77.8959559,12.5207304 C81.279264,13.7533158 81.8716687,14.2502746 81.279264,14.94457 C80.5849098,15.7583499 79.3261468,16.4014506 77.8959559,16.5717908 C76.6279295,16.7228167 74.8373837,15.9186386 73.6630386,15.8912053 C72.2263099,15.8576427 71.5098245,16.6148244 71.2955318,17.0956243 C70.9179235,17.9428491 71.6984336,19.1739412 71.6984336,20.125041 C71.6984336,21.4800889 71.2955318,22.517621 71.2955318,23.3540717 C71.2955318,24.9558613 76.0359587,26.1798485 77.8959559,27.1608193 C81.484828,29.0536064 82.448404,30.6203104 80.7866838,31.8609311 C77.9479896,29.962569 75.8188765,28.7191661 74.3993446,28.1307225 C72.6219601,27.3939371 69.7667525,27.0927791 68.6411566,26.7472021 C66.5841703,26.1156726 65.017906,24.9709641 63.279264,24.5064441 C60.6204137,23.7960682 58.0552864,23.8569487 56.6095195,23.3540717 C54.565497,22.6431051 52.8793711,22.4445719 51.3310785,21.4800889 C49.6912243,20.4585692 48.218652,18.6900864 47.1070398,18.6900864 C44.9458823,18.6900864 46.17908,20.9954434 40.7582762,21.4800889 C37.4650027,21.7745231 33.8986666,19.0259513 31.9859793,18.6900864 C29.419951,18.2394958 27.4206909,22.4705118 25.3172824,22.0703583 C24.1796108,21.853927 23.7788522,21.2054879 24.1150066,20.125041 C27.5242344,17.7962808 30.0088971,16.3850022 31.5689944,15.8912053 C33.2277713,15.3661747 34.7807852,16.2241098 36.0722477,15.8912053 C37.308668,15.5724892 37.3396271,14.6183744 38.1167595,13.9780345 C39.1710671,13.1093084 40.7582762,12.4470632 40.7582762,11.2740619 C40.7582762,10.3070225 40.1086176,10.4219749 39.2565795,10.2646645 C38.0715575,10.045876 36.4016232,9.7362165 34.7119951,9.13464158 C33.856272,8.82997002 31.9859793,8.7112274 29.6444958,8.16167681 C29.0996484,8.0338001 29.661659,7.37879174 29.223837,7.08339426 C28.9159484,6.87566254 28.1346067,6.9022314 27.5470189,6.48516482 C27.2461583,6.27161561 26.8235733,5.77656067 26.279264,5 Z" id="Rectangle" fill="#60371D" fill-rule="evenodd"></path>
                <g id="Oval" transform="translate(47.035410, 17.645522) rotate(19.000000) translate(-47.035410, -17.645522) ">
                    <use fill="black" fill-opacity="1" filter="url(#filter-3)" xlink:href="#path-2"></use>
                    <path stroke="url(#linearGradient-1)" stroke-width="1" d="M47.2618113,30.3719715 C47.9064445,30.2233983 48.5577543,29.9191146 49.1763968,29.4690637 C51.0262961,28.1232963 52.1630702,23.4834423 52.5049618,17.2839401 C52.7432757,12.9626087 51.201329,8.20866 48.9173643,6.01317878 C47.1896118,4.35236144 45.3321669,4.39883358 43.5425778,6.44889871 C45.950612,4.79314351 47.9568531,5.25413069 49.4511436,7.43146369 C50.7375106,9.30583113 51.6985895,12.1418684 52.1613294,15.2730088 C52.2007923,15.5400352 52.1757014,15.7809332 52.1003878,16.1141732 C52.08355,16.1874146 52.08355,16.1874146 52.0670051,16.2570467 C51.9875242,16.5916599 51.9685233,16.7272911 51.9890563,16.868377 C52.0772652,17.4744747 52.013569,17.9021993 51.7226502,19.2255166 C51.5959954,19.8016376 51.5329735,20.1320241 51.4902979,20.4886143 C51.0785163,23.9293949 49.9567329,27.3631237 48.491938,29.22232 C48.1000603,29.7197122 47.6883135,30.1040568 47.2618113,30.3719715 Z" stroke-linejoin="square"></path>
                </g>
                <g id="Oval-Copy" transform="translate(55.137710, 25.973456) rotate(19.000000) translate(-55.137710, -25.973456) ">
                    <use fill="black" fill-opacity="1" filter="url(#filter-5)" xlink:href="#path-4"></use>
                    <use fill="#F39927" fill-rule="evenodd" xlink:href="#path-4"></use>
                </g>
            </g>
        </g>
    </g>
</svg>